<?xml version="1.0" encoding="UTF-8" standalone="no"?>
<svg width="36px" height="30px" viewBox="0 0 24 20" version="1.1" xmlns="http://www.w3.org/2000/svg" xmlns:xlink="http://www.w3.org/1999/xlink" xmlns:sketch="http://www.bohemiancoding.com/sketch/ns">
    <!-- Generator: Sketch 3.0.3 (7892) - http://www.bohemiancoding.com/sketch -->
    <title>Facebook</title>
    <defs></defs>
    <g id="Page-1" stroke="none" stroke-width="1" fill="none" fill-rule="evenodd" sketch:type="MSPage">
        <g id="facebook" sketch:type="MSArtboardGroup" fill="#383838">
            <path d="M20.8961869,0 L3.10388807,0 C2.49405567,0 2,0.494053819 2,1.103809 L2,18.896191 C2,19.5057963 2.49405567,20 3.10388807,20 L12.6826331,20 L12.6826331,12.2549776 L10.0762703,12.2549776 L10.0762703,9.23655084 L12.6826331,9.23655084 L12.6826331,7.01057349 C12.6826331,4.42730073 14.260344,3.02067487 16.5648631,3.02067487 C17.6686762,3.02067487 18.617371,3.10287979 18.8939613,3.13959849 L18.8939613,5.83924704 L17.2955679,5.8399964 C16.0423316,5.8399964 15.7996875,6.43551372 15.7996875,7.30941872 L15.7996875,9.23655084 L18.7886007,9.23655084 L18.399381,12.2549776 L15.7996875,12.2549776 L15.7996875,20 L20.8961869,20 C21.5057945,20 22,19.5057963 22,18.896191 L22,1.103809 C22,0.494053819 21.5057945,0 20.8961869,0" sketch:type="MSShapeGroup"></path>
        </g>
    </g>
</svg>