<?xml version="1.0" encoding="UTF-8" standalone="no"?>
<svg width="24px" height="20px" viewBox="0 0 24 20" version="1.1" xmlns="http://www.w3.org/2000/svg" xmlns:xlink="http://www.w3.org/1999/xlink" xmlns:sketch="http://www.bohemiancoding.com/sketch/ns">
    <!-- Generator: Sketch 3.0.3 (7892) - http://www.bohemiancoding.com/sketch -->
    <title>instagram-white</title>
    <desc>Created with Sketch.</desc>
    <defs></defs>
    <g id="Page-1" stroke="none" stroke-width="1" fill="none" fill-rule="evenodd" sketch:type="MSPage">
        <g id="instagram-white" sketch:type="MSArtboardGroup" fill="#FFFFFF">
            <path d="M19.6927902,20 L4.30720981,20 C3.03310275,20 2,18.9665347 2,17.691533 L2,2.30723019 C2,1.03293519 3.03310275,0 4.30720981,0 L19.6927902,0 C20.9670739,0 22,1.03293519 22,2.30723019 L22,17.691533 C22,18.9665347 20.9670739,20 19.6927902,20 L19.6927902,20 Z M11.9999117,6.1536151 C9.87557534,6.1536151 8.15373742,7.87529154 8.15373742,9.99964662 C8.15373742,12.1236483 9.87557534,13.8462082 11.9999117,13.8462082 C14.124248,13.8462082 15.8464393,12.1236483 15.8464393,9.99964662 C15.8464393,7.87529154 14.124248,6.1536151 11.9999117,6.1536151 L11.9999117,6.1536151 Z M19.6927902,3.07636582 C19.6927902,2.65177751 19.3482459,2.30723019 18.9227779,2.30723019 L16.6155681,2.30723019 C16.1906302,2.30723019 15.8464393,2.65177751 15.8464393,3.07636582 L15.8464393,5.38447947 C15.8464393,5.80906778 16.1906302,6.1536151 16.6155681,6.1536151 L18.9227779,6.1536151 C19.3482459,6.1536151 19.6927902,5.80906778 19.6927902,5.38447947 L19.6927902,3.07636582 Z M19.6927902,8.4606686 L17.9516931,8.4606686 C18.0785561,8.95310623 18.1534724,9.46763022 18.1534724,9.99964662 C18.1534724,13.3988268 15.3985317,16.1536151 11.9999117,16.1536151 C8.60146829,16.1536151 5.84635092,13.3988268 5.84635092,9.99964662 C5.84635092,9.46763022 5.92162059,8.95310623 6.04848356,8.4606686 L4.30720981,8.4606686 L4.30720981,16.9229274 C4.30720981,17.3471623 4.65175408,17.691533 5.07722209,17.691533 L18.9227779,17.691533 C19.3482459,17.691533 19.6927902,17.3471623 19.6927902,16.9229274 L19.6927902,8.4606686 Z" sketch:type="MSShapeGroup"></path>
        </g>
    </g>
</svg>