<?xml version="1.0" encoding="UTF-8" standalone="no"?>
<svg width="24px" height="20px" viewBox="0 0 24 20" version="1.1" xmlns="http://www.w3.org/2000/svg" xmlns:xlink="http://www.w3.org/1999/xlink" xmlns:sketch="http://www.bohemiancoding.com/sketch/ns">
    <!-- Generator: Sketch 3.0.3 (7892) - http://www.bohemiancoding.com/sketch -->
    <title>twitter-white</title>
    <desc>Created with Sketch.</desc>
    <defs></defs>
    <g id="Page-1" stroke="none" stroke-width="1" fill="none" fill-rule="evenodd" sketch:type="MSPage">
        <g id="twitter-white" sketch:type="MSArtboardGroup" fill="#FFFFFF">
            <path d="M7.91890706,19 C5.36998427,19 2.99745419,18.2477653 1,16.9584747 C1.35310728,17.0004411 1.71241084,17.0219104 2.07670361,17.0219104 C4.19132375,17.0219104 6.13751783,16.2954388 7.68224149,15.0767133 C5.70715827,15.040013 4.04027945,13.7262555 3.46595706,11.9208923 C3.74149018,11.9739578 4.0242657,12.0023945 4.31508834,12.0023945 C4.72677859,12.0023945 5.125513,11.9468984 5.50429057,11.8430358 C3.43940159,11.4256407 1.88365339,9.58900521 1.88365339,7.38731107 C1.88365339,7.36819127 1.88365339,7.34915248 1.88397527,7.33019471 C2.49257837,7.67054344 3.18849263,7.87494711 3.92842459,7.89852281 C2.71733421,7.08366265 1.92042869,5.69277786 1.92042869,4.11628514 C1.92042869,3.28352042 2.14301181,2.50293008 2.53152639,1.83179253 C4.75767951,4.58099362 8.0834705,6.39008363 11.8347123,6.57958034 C11.7577819,6.24700915 11.7177878,5.90017914 11.7177878,5.54403226 C11.7177878,3.03455788 13.7387395,1 16.2314935,1 C17.5296536,1 18.7026812,1.55188182 19.5260617,2.43503857 C20.5541607,2.23120201 21.5201361,1.85301875 22.3922016,1.33232813 C22.0551886,2.39339629 21.3395589,3.2839255 20.4076228,3.84633942 C21.3206482,3.73648156 22.190541,3.49221795 23,3.13080503 C22.3948572,4.04207437 21.6295768,4.84243264 20.7477742,5.48310814 C20.7564651,5.67795191 20.7608106,5.87392991 20.7608106,6.07096112 C20.7608106,12.0757951 16.2209518,19 7.91890706,19" sketch:type="MSShapeGroup"></path>
        </g>
    </g>
</svg>