<svg width="24" height="20" viewBox="0 0 24 20" xmlns="http://www.w3.org/2000/svg"><title>instagram-white</title><desc>Created with Sketch.</desc><g fill="none"><path d="M19.693 20H4.307C3.033 20 2 18.967 2 17.692V2.307C2 1.033 3.033 0 4.307 0h15.386C20.967 0 22 1.033 22 2.307v15.385C22 18.967 20.967 20 19.693 20zM12 6.154c-2.124 0-3.846 1.72-3.846 3.846 0 2.124 1.722 3.846 3.846 3.846s3.846-1.722 3.846-3.846c0-2.125-1.722-3.846-3.846-3.846zm7.693-3.078c0-.424-.345-.77-.77-.77h-2.307c-.425 0-.77.346-.77.77v2.308c0 .425.345.77.77.77h2.307c.425 0 .77-.345.77-.77V3.076zm0 5.385h-1.74c.126.493.2 1.008.2 1.54 0 3.4-2.754 6.154-6.153 6.154-3.4 0-6.154-2.755-6.154-6.154 0-.532.076-1.047.202-1.54h-1.74v8.463c0 .424.344.77.77.77h13.845c.425 0 .77-.346.77-.77V8.46z" fill="#fff"/></g></svg>