<svg width="24" height="20" viewBox="0 0 24 20" xmlns="http://www.w3.org/2000/svg"><title>twitter-white</title><desc>Created with Sketch.</desc><g fill="none"><path d="M7.92 19c-2.55 0-4.923-.752-6.92-2.042.353.042.712.064 1.077.064 2.114 0 4.06-.727 5.605-1.945-1.975-.037-3.642-1.35-4.216-3.156.275.054.558.082.85.082.41 0 .81-.055 1.188-.16-2.065-.416-3.62-2.253-3.62-4.455V7.33c.61.34 1.304.545 2.044.57-1.21-.816-2.008-2.207-2.008-3.784 0-.832.223-1.613.612-2.284 2.226 2.75 5.55 4.558 9.303 4.748-.077-.333-.117-.68-.117-1.036 0-2.51 2.02-4.544 4.513-4.544 1.3 0 2.473.552 3.296 1.435 1.028-.204 1.994-.582 2.866-1.103-.337 1.06-1.052 1.952-1.984 2.514.913-.11 1.783-.354 2.592-.715-.605.912-1.37 1.712-2.252 2.353.008.195.013.39.013.588C20.76 12.077 16.22 19 7.92 19" fill="#fff"/></g></svg>